<svg width="60" height="61" viewBox="0 0 60 61" fill="none" xmlns="http://www.w3.org/2000/svg">
<path d="M55.2089 6.96388C53.1089 1.66388 47.0089 -0.93612 41.6089 1.16388C36.2089 3.26388 33.6089 9.26388 35.7089 14.5639C37.9089 19.8639 44.0089 22.4639 49.4089 20.3639C54.8089 18.2639 57.4089 12.2639 55.2089 6.96388Z" fill="#64892F"/>
<path d="M54.6089 7.26388C52.6089 2.26388 46.8089 -0.13612 41.8089 1.86388C36.7089 3.86388 34.3089 9.46388 36.3089 14.4639C38.3089 19.4639 44.1089 21.8639 49.1089 19.8639C54.2089 17.8639 56.7089 12.1639 54.6089 7.26388Z" fill="#FDFFB8"/>
<path d="M42.7089 1.96388C43.0089 1.66388 48.4089 1.56388 48.5089 2.16388C48.6089 2.36388 48.8089 2.46388 48.8089 2.66388C48.7089 3.36388 45.8089 9.66388 45.8089 9.66388C45.7089 9.66388 45.4089 9.26388 45.2089 9.56388C45.0089 9.76388 42.3089 2.76388 42.4089 2.66388C42.6089 2.46388 42.5089 2.16388 42.7089 1.96388ZM48.3089 19.6639C48.0089 19.9639 42.6089 20.0639 42.5089 19.4639C42.4089 19.2639 42.2089 19.1639 42.2089 18.9639C42.3089 18.2639 45.2089 11.9639 45.2089 11.9639C45.3089 11.9639 45.6089 12.3639 45.8089 12.0639C46.0089 11.8639 48.7089 18.8639 48.6089 18.9639C48.4089 19.1639 48.5089 19.4639 48.3089 19.6639ZM54.5089 8.06388C54.9089 8.36388 54.9089 13.5639 54.3089 13.7639C54.1089 13.8639 54.0089 14.0639 53.8089 14.0639C53.0089 13.9639 46.6089 11.1639 46.6089 11.1639C46.6089 11.0639 47.0089 10.7639 46.7089 10.5639C46.5089 10.3639 53.7089 7.76388 53.8089 7.86388C54.0089 7.96388 54.3089 7.86388 54.5089 8.06388ZM36.5089 13.4639C36.1089 13.1639 36.1089 7.96388 36.7089 7.76388C36.9089 7.66388 37.0089 7.46388 37.2089 7.46388C38.0089 7.56388 44.4089 10.3639 44.4089 10.3639C44.4089 10.4639 44.0089 10.7639 44.3089 10.9639C44.5089 11.1639 37.3089 13.7639 37.2089 13.6639C37.0089 13.6639 36.7089 13.6639 36.5089 13.4639ZM37.3089 6.66388C37.2089 6.26388 41.0089 2.46388 41.5089 2.76388C41.7089 2.86388 42.0089 2.76388 42.1089 2.86388C42.5089 3.46388 45.1089 9.86388 45.1089 9.86388C45.0089 9.86388 44.6089 9.86388 44.6089 10.1639C44.7089 10.4639 37.6089 7.36388 37.6089 7.26388C37.6089 7.06388 37.3089 6.86388 37.3089 6.66388ZM53.9089 15.0639C54.0089 15.4639 50.2089 19.1639 49.7089 18.9639C49.5089 18.8639 49.2089 18.9639 49.1089 18.8639C48.7089 18.2639 46.1089 11.8639 46.1089 11.8639C46.2089 11.8639 46.6089 11.8639 46.6089 11.4639C46.5089 11.1639 53.6089 14.2639 53.6089 14.3639C53.6089 14.6639 53.8089 14.8639 53.9089 15.0639ZM49.8089 2.66388C50.2089 2.56388 54.1089 6.26388 53.8089 6.76388C53.7089 6.96388 53.8089 7.16388 53.6089 7.36388C53.0089 7.76388 46.4089 10.2639 46.4089 10.2639C46.4089 10.1639 46.4089 9.76388 46.0089 9.76388C45.7089 9.86388 48.9089 2.96388 49.0089 2.96388C49.4089 2.96388 49.6089 2.76388 49.8089 2.66388ZM41.2089 18.8639C40.8089 18.9639 36.9089 15.2639 37.2089 14.7639C37.3089 14.5639 37.2089 14.3639 37.4089 14.1639C38.0089 13.7639 44.6089 11.2639 44.6089 11.2639C44.6089 11.3639 44.6089 11.7639 45.0089 11.7639C45.3089 11.6639 42.1089 18.5639 42.0089 18.5639C41.6089 18.5639 41.4089 18.7639 41.2089 18.8639Z" fill="#CED74D"/>
<path d="M22.3089 7.46388C19.8089 4.96388 15.6089 4.96388 13.1089 7.46388L4.00889 16.3639L5.40889 17.7639L14.5089 8.86388C16.3089 7.06388 19.2089 7.06388 21.0089 8.86388L41.0089 28.5639L42.4089 27.1639L22.3089 7.46388Z" fill="#C10259"/>
<path d="M45.7089 10.8639H20.6089C25.3089 21.7639 11.1089 41.4639 27.6089 44.7639C32.7089 46.5639 32.4089 50.6639 30.7089 54.6639C28.9089 58.8639 24.8089 59.5639 24.7089 59.6639C24.6089 59.7639 24.5089 59.9639 24.5089 60.1639C24.5089 60.3639 24.6089 60.5639 24.8089 60.5639H41.4089C41.5089 60.5639 41.6089 60.3639 41.7089 60.1639C41.7089 59.9639 41.6089 59.6639 41.5089 59.6639C41.5089 59.6639 37.3089 58.8639 35.5089 54.6639C33.8089 50.7639 33.6089 46.5639 38.6089 44.7639C55.2089 41.3639 41.0089 21.6639 45.7089 10.8639ZM33.2089 43.3639C12.3089 43.3639 27.0089 22.3639 22.7089 11.6639H43.7089C39.4089 22.3639 54.1089 43.3639 33.2089 43.3639Z" fill="#A1B8C7"/>
<path d="M23.2089 30.7639C22.6089 36.8639 23.7089 41.7639 33.1089 41.7639C40.9089 41.7639 43.0089 38.3639 43.1089 33.6639C36.9089 34.8639 31.3089 29.4639 23.2089 30.7639Z" fill="#F65500"/>
<path d="M43.2089 33.7639C43.3089 30.2639 42.3089 26.0639 41.8089 22.1639C36.4089 22.3639 31.4089 18.4639 24.7089 18.8639C24.6089 22.6639 23.6089 26.9639 23.2089 30.7639C31.3089 29.4639 36.9089 34.8639 43.2089 33.7639Z" fill="#FCB334"/>
</svg>
