<svg width="62" height="63" viewBox="0 0 62 63" fill="none" xmlns="http://www.w3.org/2000/svg">
<path d="M61.5 44.2111C61.5 56.4137 50.416 62.0065 31.1969 62.0065C11.8761 62.0065 0.893744 56.4137 0.893744 44.2111C0.893744 26.3139 61.5 26.3139 61.5 44.2111Z" fill="#E7A74F"/>
<path d="M61.2966 35.7708C61.2966 47.9734 50.3143 53.5663 31.0952 53.5663C11.9778 53.5663 0.893744 47.9734 0.893744 35.7708C0.995433 17.9754 61.2966 17.9754 61.2966 35.7708Z" fill="#BA8443"/>
<path d="M0.893744 36.0759C0.893744 30.9915 6.89336 23.975 31.1969 23.975C55.5004 23.975 61.5 31.0932 61.5 36.0759C61.5 45.3296 52.9582 52.041 31.1969 52.041C9.43557 52.041 0.893744 45.3296 0.893744 36.0759Z" fill="#826046"/>
<path d="M1.50397 30.7882C1.50397 25.7038 7.4019 18.6873 31.197 18.6873C54.992 18.6873 60.89 25.8055 60.89 30.7882C60.89 40.0418 52.5515 46.7533 31.197 46.7533C9.84242 46.7533 1.50397 40.0418 1.50397 30.7882Z" fill="#68472C"/>
<path d="M1.7074 24.1784C3.13104 21.1278 6.8935 20.9244 19.0961 26.1105C31.2987 31.2966 33.6375 34.0422 32.2139 37.1945C29.57 42.7874 22.3501 46.9566 11.3678 42.279C0.38545 37.6013 -1.03819 29.873 1.7074 24.1784Z" fill="#EF4D3C"/>
<path d="M2.72428 20.721C4.14792 17.6704 7.91039 17.467 20.113 22.6531C32.3156 27.8392 34.6544 30.5848 33.2308 33.7371C30.5869 39.33 23.367 43.4992 12.3847 38.8215C1.40233 34.1439 -0.0213029 26.3139 2.72428 20.721Z" fill="#D33B23"/>
<path d="M28.2481 34.0421C27.4346 30.7881 30.2819 28.4493 43.3997 25.602C56.5175 22.7547 60.0766 23.5682 60.8901 26.924C62.4154 32.9236 59.3647 40.3468 47.5689 42.889C35.8747 45.4312 29.6717 40.0417 28.2481 34.0421Z" fill="#EF4D3C"/>
<path d="M26.9261 30.7882C26.1126 27.5341 28.9599 25.1953 42.0777 22.348C55.1955 19.5008 58.7546 20.3143 59.5681 23.67C61.0934 29.6696 58.0428 37.0928 46.2469 39.635C34.5527 42.1772 28.4514 36.7878 26.9261 30.7882Z" fill="#D33B23"/>
<path d="M8.31704 30.3814L28.6547 49.9056L48.5856 30.3814H8.31704Z" fill="#FFE62E"/>
<path d="M60.1783 25.297C60.1783 25.297 61.0934 28.7544 60.1783 29.7713C59.3647 30.6865 56.8225 29.6696 55.704 30.4831C54.6871 31.1949 54.9921 33.9405 53.7719 34.5506C52.6533 35.1608 50.5179 33.4321 49.2976 33.9405C48.179 34.3473 47.7723 37.0929 46.552 37.4996C45.3318 37.8047 43.5014 35.7709 42.2811 35.9743C41.0608 36.1777 40.2473 38.8216 38.9254 39.0249C37.7051 39.2283 36.1798 36.8895 34.8579 36.9912C33.6376 37.0929 32.4173 39.5334 31.0954 39.5334C29.7734 39.5334 28.6549 36.9912 27.3329 36.9912C26.011 36.8895 24.5873 39.2283 23.2654 39.0249C21.9434 38.8216 21.1299 36.2794 19.9097 35.9743C18.5877 35.6692 16.859 37.8047 15.6388 37.4996C14.4185 37.0929 14.0117 34.449 12.8932 33.9405C11.6729 33.4321 9.43576 35.1608 8.41888 34.5506C7.19862 33.9405 7.50369 31.1949 6.4868 30.4831C5.36823 29.6696 2.82602 30.6865 2.01251 29.7713C1.09732 28.7544 2.01251 25.297 2.01251 25.297H60.1783Z" fill="#8CC63E"/>
<path d="M61.5 22.7548C61.5 29.3645 47.9755 32.6185 31.1969 32.6185C14.4183 32.6185 0.893744 29.3645 0.893744 22.7548C0.893744 10.7556 14.4183 0.993469 31.1969 0.993469C47.9755 0.993469 61.5 10.7556 61.5 22.7548Z" fill="#E7A74F"/>
<path d="M15.0285 13.6028L13.4015 15.1281L11.8762 13.6028L13.4015 12.0774L15.0285 13.6028ZM22.5535 11.1623L21.0281 12.6876L19.5028 11.1623L21.0281 9.63693L22.5535 11.1623ZM26.9261 18.0771L25.299 19.6024L23.7737 18.0771L25.299 16.5517L26.9261 18.0771ZM32.2139 12.5859L31.197 13.6028L30.1801 12.5859L31.197 11.569L32.2139 12.5859ZM51.2296 16.5517L50.2127 17.5686L49.1958 16.5517L50.2127 15.5349L51.2296 16.5517ZM57.5343 17.5686L56.5174 18.5855L55.5005 17.5686L56.5174 16.5517L57.5343 17.5686ZM45.6367 10.1454L44.6198 11.1623L43.603 10.1454L44.6198 9.12849L45.6367 10.1454ZM14.6218 8.82342L13.6049 9.84031L12.588 8.82342L13.6049 7.80654L14.6218 8.82342ZM9.1306 13.6028L8.11372 14.6197L7.09683 13.6028L8.11372 12.5859L9.1306 13.6028ZM15.537 20.4159L14.5201 21.4328L13.4015 20.4159L14.5201 19.399L15.537 20.4159ZM27.4345 4.75589L26.4176 5.77277L25.299 4.75589L26.4176 3.739L27.4345 4.75589ZM37.0949 3.739L36.078 4.75589L35.0611 3.739L36.078 2.72212L37.0949 3.739ZM21.0281 5.77277L20.0113 6.78966L18.9944 5.77277L20.0113 4.75589L21.0281 5.77277ZM50.2127 8.21329L49.1958 9.23018L48.1789 8.21329L49.1958 7.19641L50.2127 8.21329ZM39.1287 21.026L37.6033 22.5513L36.078 21.026L37.6033 19.5007L39.1287 21.026ZM36.6881 13.196L35.1628 14.7213L33.6375 13.196L35.1628 11.6707L36.6881 13.196ZM42.3827 7.2981L40.8574 8.82342L39.332 7.2981L40.8574 5.77277L42.3827 7.2981ZM46.857 13.9078L45.3316 15.4332L43.7046 13.9078L45.3316 12.3825L46.857 13.9078ZM53.365 11.6707L51.8397 13.196L50.2127 11.6707L51.8397 10.1454L53.365 11.6707ZM48.3823 20.6193L46.857 22.1446L45.3316 20.6193L46.857 19.0939L48.3823 20.6193ZM11.1644 17.9754L9.63904 19.5007L8.11372 17.9754L9.63904 16.45L11.1644 17.9754Z" fill="#FFC17A"/>
</svg>
