<svg width="27" height="44" viewBox="0 0 27 44" fill="none" xmlns="http://www.w3.org/2000/svg">
<path d="M3.70703 9.63092C3.27779 9.63092 2.93788 9.99977 2.96574 10.4353L5.01932 42.5383C5.04474 42.9356 5.36906 43.2447 5.76061 43.2447H21.2394C21.6309 43.2447 21.9553 42.9356 21.9807 42.5383L24.0343 10.4353C24.0621 9.99977 23.7222 9.63092 23.293 9.63092H3.70703Z" fill="white"/>
<path fill-rule="evenodd" clip-rule="evenodd" d="M3.70705 10.3863V10.3863L5.76063 42.4893H21.2394L23.293 10.3863H3.70705ZM2.22446 10.4843C2.16874 9.61324 2.84856 8.87555 3.70705 8.87555H23.293C24.1515 8.87555 24.8313 9.61324 24.7756 10.4843L22.722 42.5873C22.6712 43.382 22.0225 44 21.2394 44H5.76063C4.97753 44 4.32888 43.382 4.27805 42.5873L2.22446 10.4843Z" fill="#201208"/>
<path d="M2.05966 13.4077C1.62163 13.4077 1.2787 13.7912 1.32014 14.2346L3.33222 35.7625C3.36846 36.1502 3.68871 36.4464 4.07175 36.4464H22.9283C23.3113 36.4464 23.6315 36.1502 23.6678 35.7625L25.6799 14.2346C25.7213 13.7912 25.3784 13.4077 24.9403 13.4077H2.05966Z" fill="#FCB334"/>
<path fill-rule="evenodd" clip-rule="evenodd" d="M0.58061 14.306C0.497724 13.4192 1.18359 12.6524 2.05966 12.6524H24.9403C25.8164 12.6524 26.5023 13.4192 26.4194 14.306L24.4073 35.8339C24.3348 36.6094 23.6943 37.2017 22.9283 37.2017H4.07174C3.30566 37.2017 2.66517 36.6094 2.59269 35.8339L0.58061 14.306ZM24.9403 14.1631L2.05966 14.1631L4.07174 35.691H22.9283L24.9403 14.1631Z" fill="#301F13"/>
<path d="M4.83036 0.755341C4.50006 0.755341 4.20944 0.977098 4.11711 1.29957L2.81956 5.83176C2.68117 6.31511 3.03772 6.79826 3.5328 6.79826H23.4672C23.9623 6.79826 24.3188 6.31511 24.1804 5.83176L22.8829 1.29957C22.7905 0.977098 22.4999 0.755341 22.1696 0.755341H4.83036Z" fill="#826046"/>
<path fill-rule="evenodd" clip-rule="evenodd" d="M3.40386 1.08846C3.5885 0.443515 4.16976 0 4.83035 0H22.1696C22.8302 0 23.4115 0.443516 23.5961 1.08846L24.8937 5.62065C25.1704 6.58735 24.4573 7.55365 23.4672 7.55365H3.53279C2.54263 7.55365 1.82953 6.58735 2.1063 5.62065L3.40386 1.08846ZM22.1696 1.51073L4.83035 1.51073L3.53279 6.04292H23.4672L22.1696 1.51073Z" fill="#301F13"/>
<path d="M1.98571 5.28754C1.57544 5.28754 1.24285 5.62573 1.24285 6.0429V10.5751C1.24285 10.9923 1.57544 11.3305 1.98571 11.3305H25.0143C25.4246 11.3305 25.7571 10.9923 25.7571 10.5751V6.0429C25.7571 5.62573 25.4246 5.28754 25.0143 5.28754H1.98571Z" fill="#826046"/>
<path fill-rule="evenodd" clip-rule="evenodd" d="M0.5 6.0429C0.5 5.20854 1.16518 4.53217 1.98571 4.53217H25.0143C25.8348 4.53217 26.5 5.20854 26.5 6.0429V10.5751C26.5 11.4094 25.8348 12.0858 25.0143 12.0858H1.98571C1.16518 12.0858 0.5 11.4094 0.5 10.5751V6.0429ZM25.0143 6.0429H1.98571V10.5751H25.0143V6.0429Z" fill="#301F13"/>
<path d="M20.3714 24.927C20.3714 28.7859 17.295 31.9142 13.5 31.9142C9.70502 31.9142 6.62858 28.7859 6.62858 24.927C6.62858 21.0682 9.70502 17.9399 13.5 17.9399C17.295 17.9399 20.3714 21.0682 20.3714 24.927Z" fill="white"/>
<path fill-rule="evenodd" clip-rule="evenodd" d="M13.5 18.6953C10.1153 18.6953 7.37143 21.4854 7.37143 24.9271C7.37143 28.3688 10.1153 31.1588 13.5 31.1588C16.8847 31.1588 19.6286 28.3688 19.6286 24.9271C19.6286 21.4854 16.8847 18.6953 13.5 18.6953ZM5.88571 24.9271C5.88571 20.651 9.29474 17.1846 13.5 17.1846C17.7053 17.1846 21.1143 20.651 21.1143 24.9271C21.1143 29.2031 17.7053 32.6696 13.5 32.6696C9.29474 32.6696 5.88571 29.2031 5.88571 24.9271Z" fill="#301F13"/>
<path d="M11.0196 23.7911C11.0669 23.793 11.1217 23.8089 11.1729 23.8386C11.233 23.8735 11.2932 23.9083 11.3539 23.9423C11.3891 23.962 11.4105 23.9566 11.4155 23.9096C11.4233 23.8358 11.435 23.7623 11.4466 23.689C11.4523 23.652 11.4421 23.6244 11.4111 23.6033C11.3904 23.5892 11.3695 23.5744 11.3523 23.5565C11.2885 23.4899 11.2805 23.381 11.333 23.3145C11.388 23.2447 11.4794 23.2283 11.5618 23.2784C11.712 23.3697 11.8608 23.4637 12.0102 23.5566C12.2811 23.7249 12.5526 23.8923 12.8222 24.0625C12.8676 24.0911 12.8915 24.0829 12.9214 24.0413C13.3564 23.4362 13.7933 22.8324 14.2283 22.2273C14.2962 22.1329 14.3787 22.0918 14.4955 22.1061C14.6673 22.1273 14.8397 22.1434 15.0105 22.1724C15.0213 22.1743 15.0341 22.1835 15.0423 22.1714C15.0534 22.1549 15.0357 22.1479 15.0278 22.1385C14.9477 22.0429 14.9434 21.9531 15.0164 21.8512C15.1603 21.6503 15.3047 21.4497 15.4491 21.2492C15.5068 21.1691 15.5824 21.1382 15.6806 21.1543C15.9425 21.1971 16.205 21.2361 16.4671 21.2775C16.4935 21.2816 16.5203 21.2885 16.5446 21.2994C16.6422 21.3426 16.6568 21.4122 16.5933 21.4983C16.403 21.7567 16.2141 22.0165 16.0253 22.2761C15.9903 22.3241 16.0046 22.3601 16.0647 22.3696C16.1958 22.3904 16.327 22.4096 16.4587 22.4263C16.5797 22.4415 16.6357 22.5323 16.593 22.6487C16.5759 22.6954 16.5469 22.7344 16.5183 22.7738C15.9439 23.5687 15.3693 24.3633 14.7948 25.1581C14.733 25.2436 14.7217 25.2459 14.6305 25.1899C14.405 25.0511 14.1792 24.9128 13.9542 24.7731C13.8774 24.7255 13.8027 24.7245 13.7262 24.7722C13.6473 24.8212 13.5678 24.8689 13.4888 24.9173C13.4127 24.9639 13.3335 24.9694 13.2596 24.9197C13.1044 24.8152 12.9642 24.8407 12.8261 24.9547C12.6482 25.1016 12.4432 25.1671 12.2141 25.1527C12.0773 25.1442 11.9487 25.1055 11.832 25.0327C11.5007 24.8261 11.1706 24.6175 10.8398 24.41C10.7329 24.3429 10.6639 24.2545 10.6715 24.1183C10.681 23.949 10.8413 23.7921 11.0196 23.7913V23.7911Z" fill="#7159C0"/>
<path d="M12.0014 27.0694C11.9923 27.2798 11.9291 27.4417 11.7936 27.5692C11.4195 27.9214 11.0442 28.2723 10.6693 28.6236C10.607 28.6819 10.5445 28.7399 10.4821 28.7981C10.4735 28.806 10.4658 28.815 10.4563 28.8216C10.4272 28.8418 10.3959 28.8488 10.3649 28.8269C10.3359 28.8065 10.3411 28.7784 10.3494 28.7481C10.4195 28.4902 10.4884 28.232 10.5579 27.9741C10.6497 27.6333 10.7411 27.2922 10.8337 26.9516C10.8941 26.7291 11.0433 26.5932 11.2524 26.5196C11.2971 26.5039 11.3439 26.5105 11.3845 26.5406C11.5428 26.6581 11.699 26.779 11.8799 26.8606C11.8868 26.8636 11.8937 26.8683 11.8986 26.8742C11.9517 26.9382 11.9958 27.0068 12.0014 27.0695V27.0694Z" fill="#7159C1"/>
<path d="M13.1092 26.3258C13.0046 26.3165 12.8893 26.3096 12.7749 26.2951C12.6909 26.2846 12.6236 26.3013 12.5598 26.3632C12.4234 26.4956 12.2794 26.6199 12.1407 26.7498C12.1053 26.7831 12.0753 26.786 12.0325 26.7661C11.8182 26.666 11.619 26.5416 11.433 26.3943C11.3926 26.3624 11.3818 26.327 11.3948 26.2767C11.4432 26.0876 11.4877 25.8976 11.5364 25.7085C11.5536 25.6416 11.5465 25.583 11.5093 25.5243C11.4447 25.4224 11.3859 25.3167 11.3207 25.2151C11.2902 25.1677 11.278 25.1203 11.2903 25.0658C11.2925 25.0562 11.2941 25.0465 11.2952 25.0369C11.3059 24.9347 11.3056 24.9352 11.3949 24.9911C12.016 25.3794 12.6372 25.7675 13.2584 26.1558C13.2732 26.1649 13.2896 26.1727 13.3015 26.1849C13.32 26.2038 13.3353 26.2343 13.3082 26.2499C13.2494 26.2836 13.1961 26.336 13.1094 26.3258H13.1092Z" fill="#7159C1"/>
</svg>
