<svg width="60" height="61" viewBox="0 0 60 61" fill="none" xmlns="http://www.w3.org/2000/svg">
<path d="M51.1004 37.1H43.6004V40.9H51.1004C52.1004 40.9 53.0004 41.7 53.0004 42.8C53.0004 43.9 52.2004 44.7 51.1004 44.7H4.30037C3.30037 44.7 2.40037 45.5 2.40037 46.6C2.40037 47.6 3.20037 48.5 4.30037 48.5H51.2004C54.3004 48.5 56.8004 46 56.8004 42.9C56.8004 39.6 54.2004 37.1 51.1004 37.1ZM52.5004 24.2L48.8004 23.9C48.8004 23.8 51.1004 10.1 51.6004 7.3C51.9004 5.7 52.5004 1.2 58.2004 1.2V5C55.9004 5 55.6004 5.9 55.4004 7.6C54.8004 10.4 52.5004 24 52.5004 24.2Z" fill="#B2C1C0"/>
<path d="M52.7004 10.8H2.00037C0.100373 10.8 -0.199627 12.6 0.100373 13.6L5.80037 39C6.10037 40 7.10037 40.8 8.20037 40.8H48.0004C49.0004 40.8 50.0004 40 50.2004 38.9L54.4004 12.6C54.5004 11.7 53.7004 10.8 52.7004 10.8ZM4.90037 19.3L3.90037 15.5C3.80037 15 4.10037 14.6 4.60037 14.6H11.7004C12.2004 14.6 12.7004 15 12.7004 15.5L13.1004 19.3C13.2004 19.8 12.8004 20.2 12.3004 20.2H6.00037C5.50037 20.2 5.00037 19.8 4.90037 19.3ZM8.10037 28.6C7.60037 28.6 7.10037 28.2 6.90037 27.7L6.20037 24.8C6.10037 24.3 6.40037 23.9 6.90037 23.9H12.6004C13.1004 23.9 13.6004 24.3 13.6004 24.8L13.9004 27.6C14.0004 28.1 13.6004 28.5 13.1004 28.5C13.2004 28.6 8.10037 28.6 8.10037 28.6ZM14.1004 37.1H10.2004C9.70037 37.1 9.20037 36.7 9.00037 36.2L8.30037 33.3C8.20037 32.8 8.50037 32.4 9.00037 32.4H13.5004C14.0004 32.4 14.5004 32.8 14.5004 33.3L14.8004 36.1C15.0004 36.6 14.6004 37.1 14.1004 37.1ZM25.6004 36.1C25.6004 36.6 25.2004 37 24.7004 37H19.8004C19.3004 37 18.8004 36.6 18.8004 36.1L18.5004 33.3C18.4004 32.8 18.8004 32.4 19.3004 32.4H24.7004C25.2004 32.4 25.6004 32.8 25.6004 33.3V36.1ZM25.6004 27.7C25.6004 28.2 25.2004 28.6 24.7004 28.6H18.9004C18.4004 28.6 17.9004 28.2 17.9004 27.7L17.6004 24.9C17.5004 24.4 17.9004 24 18.4004 24H24.7004C25.2004 24 25.6004 24.4 25.6004 24.9V27.7ZM25.6004 19.3C25.6004 19.8 25.2004 20.2 24.7004 20.2H18.0004C17.5004 20.2 17.0004 19.8 17.0004 19.3L16.5004 15.5C16.4004 15 16.8004 14.6 17.3004 14.6H24.6004C25.1004 14.6 25.5004 15 25.5004 15.5C25.6004 15.5 25.6004 19.3 25.6004 19.3ZM35.8004 36.1C35.7004 36.6 35.3004 37 34.8004 37H30.4004C29.9004 37 29.5004 36.6 29.5004 36.1V33.3C29.5004 32.8 29.9004 32.4 30.4004 32.4H35.3004C35.8004 32.4 36.2004 32.8 36.1004 33.3L35.8004 36.1ZM36.7004 27.7C36.6004 28.2 36.2004 28.6 35.7004 28.6H30.4004C29.9004 28.6 29.5004 28.2 29.5004 27.7V24.9C29.5004 24.4 29.9004 24 30.4004 24H36.2004C36.7004 24 37.1004 24.4 37.0004 24.9L36.7004 27.7ZM37.6004 19.3C37.5004 19.8 37.1004 20.2 36.6004 20.2H30.4004C29.9004 20.2 29.5004 19.8 29.5004 19.3V15.5C29.5004 15 29.9004 14.6 30.4004 14.6H37.2004C37.7004 14.6 38.1004 15 38.0004 15.5L37.6004 19.3ZM46.3004 36.1C46.2004 36.6 45.7004 37 45.2004 37H40.4004C39.9004 37 39.5004 36.6 39.6004 36.1L39.9004 33.3C40.0004 32.8 40.4004 32.4 40.9004 32.4H46.0004C46.5004 32.4 46.9004 32.8 46.8004 33.3L46.3004 36.1ZM47.6004 27.7C47.5004 28.2 47.0004 28.6 46.5004 28.6H41.2004C40.7004 28.6 40.3004 28.2 40.4004 27.7L40.7004 24.9C40.8004 24.4 41.2004 24 41.7004 24H47.2004C47.7004 24 48.1004 24.4 48.0004 24.9L47.6004 27.7ZM48.9004 19.3C48.8004 19.8 48.3004 20.2 47.8004 20.2H42.1004C41.6004 20.2 41.2004 19.8 41.3004 19.3L41.7004 15.5C41.8004 15 42.2004 14.6 42.7004 14.6H48.6004C49.1004 14.6 49.5004 15 49.4004 15.5L48.9004 19.3Z" fill="#F15744"/>
<path d="M10.3004 60.5C13.3932 60.5 15.9004 57.9928 15.9004 54.9C15.9004 51.8072 13.3932 49.3 10.3004 49.3C7.20758 49.3 4.70037 51.8072 4.70037 54.9C4.70037 57.9928 7.20758 60.5 10.3004 60.5Z" fill="#62727A"/>
<path d="M10.3004 57.7C11.8468 57.7 13.1004 56.4464 13.1004 54.9C13.1004 53.3536 11.8468 52.1 10.3004 52.1C8.75398 52.1 7.50037 53.3536 7.50037 54.9C7.50037 56.4464 8.75398 57.7 10.3004 57.7Z" fill="white"/>
<path d="M44.1004 60.5C47.1932 60.5 49.7004 57.9928 49.7004 54.9C49.7004 51.8072 47.1932 49.3 44.1004 49.3C41.0076 49.3 38.5004 51.8072 38.5004 54.9C38.5004 57.9928 41.0076 60.5 44.1004 60.5Z" fill="#62727A"/>
<path d="M46.9004 54.9C46.9004 56.5 45.6004 57.7 44.1004 57.7C42.5004 57.7 41.3004 56.4 41.3004 54.9C41.3004 53.3 42.6004 52.1 44.1004 52.1C45.6004 52.1 46.9004 53.3 46.9004 54.9Z" fill="white"/>
<path d="M59.1004 0.5H56.3004V6.1H59.1004C59.6004 6.1 60.0004 5.7 60.0004 5.2V1.4C60.0004 0.9 59.6004 0.5 59.1004 0.5Z" fill="#62727A"/>
<path d="M10.3004 47.4C6.20037 47.4 2.80037 50.8 2.80037 54.9H17.8004C17.8004 50.7 14.5004 47.4 10.3004 47.4ZM44.1004 47.4C40.0004 47.4 36.6004 50.8 36.6004 54.9H51.6004C51.6004 50.7 48.2004 47.4 44.1004 47.4Z" fill="#F15744"/>
</svg>
