<svg width="21" height="20" viewBox="0 0 21 20" fill="none" xmlns="http://www.w3.org/2000/svg">
<path d="M8.59789 2.3541C9.19659 0.511483 11.8034 0.511479 12.4021 2.3541L13.3064 5.13729C13.5742 5.96133 14.3421 6.51925 15.2085 6.51925H18.135C20.0724 6.51925 20.878 8.99848 19.3105 10.1373L16.943 11.8574C16.242 12.3667 15.9487 13.2694 16.2165 14.0935L17.1208 16.8766C17.7195 18.7193 15.6105 20.2515 14.0431 19.1127L11.6756 17.3926C10.9746 16.8833 10.0254 16.8833 9.32443 17.3926L6.95691 19.1127C5.38948 20.2515 3.28052 18.7193 3.87923 16.8766L4.78354 14.0935C5.05129 13.2694 4.75797 12.3667 4.057 11.8574L1.68947 10.1373C0.122046 8.99848 0.9276 6.51925 2.86505 6.51925H5.79146C6.65792 6.51925 7.42583 5.96133 7.69357 5.13729L8.59789 2.3541Z" fill="#FD9448"/>
</svg>
